<?xml version="1.0" encoding="UTF-8"?>
<!-- Generated by Pixelmator Pro Trial 2.4.5 -->
<svg width="256" height="256" viewBox="0 0 256 256" xmlns="http://www.w3.org/2000/svg" xmlns:xlink="http://www.w3.org/1999/xlink">
    <path id="Shape-2" fill="#ffffff" fill-rule="evenodd" stroke="#343534" stroke-width="7.314286" stroke-linecap="round" stroke-linejoin="round" d="M 128 3.65715 C 196.672653 3.65715 252.34285 59.327347 252.34285 128 C 252.34285 196.672668 196.672653 252.34285 128 252.34285 C 59.327332 252.34285 3.657143 196.672668 3.657143 128 C 3.657143 59.327347 59.327332 3.65715 128 3.65715 Z"/>
    <g id="Group">
        <path id="Shape-copy" fill="#575757" fill-rule="evenodd" stroke="none" d="M 152.502853 124.708572 L 152.502853 106.422852 L 207.360001 106.422852 L 207.360001 124.708572 Z"/>
        <text id="S" xml:space="preserve" x="49.446753" y="181" font-family="Inter" font-size="146.285714" font-weight="700" fill="#343534" letter-spacing="7.314286">S</text>
        <path id="Shape" fill="#343534" fill-rule="evenodd" stroke="none" d="M 152.502853 97.279999 L 152.502853 78.994293 L 207.360001 78.994293 L 207.360001 97.279999 Z"/>
        <path id="Shape-copy-2" fill="#8d8d8d" fill-rule="evenodd" stroke="none" d="M 152.502853 179.565704 L 152.502853 161.279999 L 207.360001 161.279999 L 207.360001 179.565704 Z"/>
        <path id="Shape-copy-1" fill="#747474" fill-rule="evenodd" stroke="none" d="M 152.502853 152.137146 L 152.502853 133.851425 L 207.360001 133.851425 L 207.360001 152.137146 Z"/>
    </g>
</svg>
