<?xml version="1.0" encoding="UTF-8"?>
<!-- Generated by Pixelmator Pro Trial 2.4.5 -->
<svg width="700" height="700" viewBox="0 0 700 700" xmlns="http://www.w3.org/2000/svg" xmlns:xlink="http://www.w3.org/1999/xlink">
    <path id="Shape-2" fill="#ffffff" fill-rule="evenodd" stroke="#343534" stroke-width="20" stroke-linecap="round" stroke-linejoin="round" d="M 350 10 C 537.776794 10 690 162.223206 690 350 C 690 537.776855 537.776794 690 350 690 C 162.223175 690 10 537.776855 10 350 C 10 162.223206 162.223175 10 350 10 Z"/>
    <g id="Group">
        <path id="Shape-copy" fill="#575757" fill-rule="evenodd" stroke="none" d="M 417 341 L 417 291 L 567 291 L 567 341 Z"/>
        <text id="S" xml:space="preserve" x="275" y="494" text-anchor="middle" font-family="Inter" font-size="400" font-weight="700" fill="#343534" letter-spacing="20">S</text>
        <path id="Shape" fill="#343534" fill-rule="evenodd" stroke="none" d="M 417 266 L 417 216 L 567 216 L 567 266 Z"/>
        <path id="Shape-copy-2" fill="#8d8d8d" fill-rule="evenodd" stroke="none" d="M 417 491 L 417 441 L 567 441 L 567 491 Z"/>
        <path id="Shape-copy-1" fill="#747474" fill-rule="evenodd" stroke="none" d="M 417 416 L 417 366 L 567 366 L 567 416 Z"/>
    </g>
</svg>
